<svg xmlns="http://www.w3.org/2000/svg" width="92" height="129" viewBox="0 0 92 129" fill="none">
    <path
        d="M58.3044 5L87.177 66.9174L34.4255 102.499C31.3588 104.567 27.6054 103.526 26.0421 100.174L2.54777 49.79C1.14078 46.7727 2.23766 42.8175 4.9977 40.9559L58.3044 5Z"
        fill="#E3E3E8" />
    <g filter="url(#filter0_f_15_220)">
        <path
            d="M51.6553 10.175L66.9788 37.8195L43.5697 90.3972C41.6138 94.7903 38.1382 94.9421 35.8068 90.7361L26.9776 74.8079C25.7223 72.5432 25.5584 68.7896 26.6116 66.4241L51.6553 10.175Z"
            fill="#272991" fill-opacity="0.3" />
    </g>
    <path
        d="M58.3032 5L91.4246 64.7525L66.3613 121.046C64.4054 125.439 60.9298 125.59 58.5984 121.384L31.9714 73.3481C30.7161 71.0834 30.5522 67.3298 31.6054 64.9643L58.3032 5Z"
        fill="#6366F1" />
    <defs>
        <filter id="filter0_f_15_220" x="16.6074" y="0.865012" width="59.6814" height="102.239"
            filterUnits="userSpaceOnUse" color-interpolation-filters="sRGB">
            <feFlood flood-opacity="0" result="BackgroundImageFix" />
            <feBlend mode="normal" in="SourceGraphic" in2="BackgroundImageFix" result="shape" />
            <feGaussianBlur stdDeviation="4.65502" result="effect1_foregroundBlur_15_220" />
        </filter>
    </defs>
</svg>