<svg xmlns="http://www.w3.org/2000/svg" width="180" height="180" viewBox="0 0 180 180" fill="none">
    <g clip-path="url(#clip0_12_186)">
        <path d="M0 162L180 162" stroke="#34323F" stroke-opacity="0.2" />
        <path d="M0 144L180 144" stroke="#34323F" stroke-opacity="0.31" />
        <path d="M0 126L180 126" stroke="#34323F" stroke-opacity="0.55" />
        <path d="M0 108L180 108" stroke="#34323F" />
        <path d="M0 90L180 90" stroke="#34323F" />
        <path d="M0 72L180 72" stroke="#34323F" />
        <path d="M0 54L180 54" stroke="#34323F" />
        <path d="M0 36L180 36" stroke="#34323F" />
        <path d="M0 18L180 18" stroke="#34323F" />
        <path d="M18 0V180" stroke="url(#paint0_linear_12_186)" />
        <path d="M36 0V180" stroke="url(#paint1_linear_12_186)" />
        <path d="M54 0V180" stroke="url(#paint2_linear_12_186)" />
        <path d="M72 0V180" stroke="url(#paint3_linear_12_186)" />
        <path d="M90 0V180" stroke="url(#paint4_linear_12_186)" />
        <path d="M108 0V180" stroke="url(#paint5_linear_12_186)" />
        <path d="M126 0V180" stroke="url(#paint6_linear_12_186)" />
        <path d="M144 0V180" stroke="url(#paint7_linear_12_186)" />
        <path d="M162 0V180" stroke="url(#paint8_linear_12_186)" />
    </g>
    <defs>
        <linearGradient id="paint0_linear_12_186" x1="18.5" y1="0" x2="18.5" y2="180"
            gradientUnits="userSpaceOnUse">
            <stop stop-color="#34323F" />
            <stop offset="1" stop-color="#34323F" stop-opacity="0" />
        </linearGradient>
        <linearGradient id="paint1_linear_12_186" x1="36.5" y1="0" x2="36.5" y2="180"
            gradientUnits="userSpaceOnUse">
            <stop stop-color="#34323F" />
            <stop offset="1" stop-color="#34323F" stop-opacity="0" />
        </linearGradient>
        <linearGradient id="paint2_linear_12_186" x1="54.5" y1="0" x2="54.5" y2="180"
            gradientUnits="userSpaceOnUse">
            <stop stop-color="#34323F" />
            <stop offset="1" stop-color="#34323F" stop-opacity="0" />
        </linearGradient>
        <linearGradient id="paint3_linear_12_186" x1="72.5" y1="0" x2="72.5" y2="180"
            gradientUnits="userSpaceOnUse">
            <stop stop-color="#34323F" />
            <stop offset="1" stop-color="#34323F" stop-opacity="0" />
        </linearGradient>
        <linearGradient id="paint4_linear_12_186" x1="90.5" y1="0" x2="90.5" y2="180"
            gradientUnits="userSpaceOnUse">
            <stop stop-color="#34323F" />
            <stop offset="1" stop-color="#34323F" stop-opacity="0" />
        </linearGradient>
        <linearGradient id="paint5_linear_12_186" x1="108.5" y1="0" x2="108.5" y2="180"
            gradientUnits="userSpaceOnUse">
            <stop stop-color="#34323F" />
            <stop offset="1" stop-color="#34323F" stop-opacity="0" />
        </linearGradient>
        <linearGradient id="paint6_linear_12_186" x1="126.5" y1="0" x2="126.5" y2="180"
            gradientUnits="userSpaceOnUse">
            <stop stop-color="#34323F" />
            <stop offset="1" stop-color="#34323F" stop-opacity="0" />
        </linearGradient>
        <linearGradient id="paint7_linear_12_186" x1="144.5" y1="0" x2="144.5" y2="180"
            gradientUnits="userSpaceOnUse">
            <stop stop-color="#34323F" />
            <stop offset="1" stop-color="#34323F" stop-opacity="0" />
        </linearGradient>
        <linearGradient id="paint8_linear_12_186" x1="162.5" y1="0" x2="162.5" y2="180"
            gradientUnits="userSpaceOnUse">
            <stop stop-color="#34323F" />
            <stop offset="1" stop-color="#34323F" stop-opacity="0" />
        </linearGradient>
        <clipPath id="clip0_12_186">
            <rect width="180" height="180" fill="white" />
        </clipPath>
    </defs>
</svg>