<svg xmlns="http://www.w3.org/2000/svg" width="68" height="61" viewBox="0 0 68 61" fill="none">
    <path
        d="M16.7008 9.1001C19.8008 13.0001 21.6008 17.9001 21.6008 23.3001C21.6008 27.9001 20.2008 32.2001 17.9008 35.8001H1.30078L16.7008 9.1001Z"
        fill="#AFADBE" />
    <path
        d="M67.4009 41.7C67.4009 41.9 67.3009 42.1 67.1009 42.2C66.0009 42.7 62.3009 44.4 60.7009 46.6C56.7009 52.1 53.7009 60.9 46.9009 60.9H18.4009C8.30088 60.9 -0.0991163 52.9 0.000883742 42.3C0.000883742 42 0.200884 41.8 0.500884 41.8H13.9009C14.4009 41.8 14.7009 42.2 14.7009 42.6V45.2C14.7009 46.6 15.8009 47.7 17.2009 47.7H27.4009V41.8H20.4009C24.4009 36.7 26.8009 30.3 26.8009 23.3C26.8009 15.5 23.8009 8.4 18.9009 3.1C21.9009 3.4 24.7009 4 27.3009 4.8V3.1C27.3009 1.4 28.7009 0 30.4009 0C32.1009 0 33.5009 1.4 33.5009 3.1V7.1C43.0009 11.5 49.3009 18.9 49.3009 27.3C49.3009 32.2 47.2009 36.8 43.5009 40.6C42.8009 41.3 41.8009 41.7 40.8009 41.7H33.6009V47.6H42.6009C44.5009 47.6 48.0009 43.9 49.7009 41.7C49.7009 41.7 49.8009 41.6 50.0009 41.5C50.2009 41.4 66.6009 37.7 66.6009 37.7C66.9009 37.6 67.3009 37.9 67.3009 38.2L67.4009 41.7Z"
        fill="#AFADBE" />
</svg>